<svg xmlns="http://www.w3.org/2000/svg" width="77.985" height="94.422" viewBox="-5 -5 87.985 104.422">
  <g id="noun-award-5313622" transform="translate(-128.799 -12.174)">
    <path id="Path_4432" data-name="Path 4432" d="M194.222,65.781c.959-.4,1.764-.671,1.841-.7,3.225-1.113,5.315-2.911,6.388-5.5a9.951,9.951,0,0,0-.642-8.463c-.039-.084-.093-.182-.152-.3a12.4,12.4,0,0,1-1.617-4.933,10.746,10.746,0,0,1,1.516-4.726c.092-.187.182-.372.271-.558,1.47-3.026,1.681-5.853.625-8.4-1.08-2.606-3.262-4.465-6.486-5.534-1.666-.555-3.743-1.244-4.85-2.392a10.451,10.451,0,0,1-2.292-4.387c-.063-.186-.125-.368-.187-.554l0,0,0-.013,0-.012a9.906,9.906,0,0,0-5.521-6.459,8.8,8.8,0,0,0-3.384-.67,11.291,11.291,0,0,0-5.077,1.321c-1.632.824-3.486,1.76-5.217,1.76a11.77,11.77,0,0,1-5.06-1.673,11.23,11.23,0,0,0-5.23-1.412,8.84,8.84,0,0,0-3.4.674,9.892,9.892,0,0,0-5.509,6.411c-.048.144-.1.307-.158.482a11.505,11.505,0,0,1-2.324,4.51,11.331,11.331,0,0,1-4.459,2.27l-.512.175c-3.223,1.113-5.313,2.911-6.39,5.5a10.053,10.053,0,0,0,.71,8.571,10.535,10.535,0,0,1,1.71,5.042,11.4,11.4,0,0,1-1.538,4.839c-.087.176-.173.35-.258.527a9.982,9.982,0,0,0-.628,8.4,9.546,9.546,0,0,0,5.453,5.149L128.8,93.595l17.287.1,11.506,12.9,10.135-22.444L178,106.584,189.5,93.7l17.285-.1Zm-37.66,34.1-8.81-9.876-13.235-.078,10.805-23.921a7.409,7.409,0,0,1,2.4,1.5,10.416,10.416,0,0,1,2.29,4.381c.062.187.125.378.189.563l0,.011a9.913,9.913,0,0,0,5.529,6.474,8.8,8.8,0,0,0,3.382.669,11.279,11.279,0,0,0,5.077-1.32,26.273,26.273,0,0,1,2.678-1.23Zm5.961-24.906a7.577,7.577,0,0,1-3.4.922,5.084,5.084,0,0,1-1.965-.387,6.469,6.469,0,0,1-3.419-4.177l-.015-.046c-.726-2.115-1.315-4.26-3.331-6.354-1.684-1.748-4.147-2.6-6.354-3.336s-3.574-1.851-4.231-3.433a6.534,6.534,0,0,1,.535-5.373c1-2.064,2.119-4.091,2.161-6.9h0c.064-2.745-1.651-5.969-2.16-6.9a6.406,6.406,0,0,1-.537-5.37,6.346,6.346,0,0,1,4.176-3.42c1.9-.653,4.512-1.42,6.409-3.353,2.092-2.136,2.887-5.043,3.345-6.4a6.288,6.288,0,0,1,3.415-4.176,5.178,5.178,0,0,1,1.988-.393,7.614,7.614,0,0,1,3.5.985,15.045,15.045,0,0,0,6.787,2.1c2.551,0,4.874-1.143,6.887-2.16a7.589,7.589,0,0,1,3.406-.923,5.08,5.08,0,0,1,1.965.388,6.465,6.465,0,0,1,3.417,4.176l.016.048c.726,2.115,1.315,4.26,3.333,6.352,1.682,1.748,4.146,2.6,6.35,3.337s3.574,1.851,4.232,3.434a6.526,6.526,0,0,1-.534,5.372c-1,2.063-2.16,4.154-2.16,6.9,0,2.978,1.735,6.045,2.163,6.9a6.4,6.4,0,0,1,.53,5.376,6.353,6.353,0,0,1-4.177,3.419c-1.9.653-4.512,1.42-6.4,3.353-2.1,2.136-2.891,5.045-3.349,6.4a6.292,6.292,0,0,1-3.415,4.177,5.155,5.155,0,0,1-1.988.393,7.649,7.649,0,0,1-3.5-.984,15.008,15.008,0,0,0-6.786-2.1c-2.552,0-4.877,1.149-6.889,2.164Zm25.3,15.03-8.819,9.89-9.263-20.219,1.318-2.915a17.052,17.052,0,0,1,3.408,1.43,11.244,11.244,0,0,0,5.229,1.414,8.842,8.842,0,0,0,3.4-.674,9.892,9.892,0,0,0,5.508-6.411c.048-.144,1.146-3.506,2.387-4.883l10.069,22.29Z" fill="#de6834"/>
    <path id="Path_4433" data-name="Path 4433" d="M268.129,113.69l9.81-9.56-13.556-1.969-6.06-12.284-6.062,12.284-13.555,1.969,9.808,9.56-2.314,13.5,12.123-6.374,12.125,6.374Z" transform="translate(-90.533 -64.005)" fill="#de6834"/>
  </g>
</svg>
