<svg xmlns="http://www.w3.org/2000/svg" width="78.029" height="78.029" viewBox="-5 -5 88.029 88.029">
  <g id="noun-coder-6150017" transform="translate(-2.601 -2)">
    <path id="Path_5154" data-name="Path 5154" d="M7.2,12.4A10.4,10.4,0,0,1,17.606,2H64.423a10.4,10.4,0,0,1,10.4,10.4V25.7a7.253,7.253,0,0,1,5.2,6.957V66.106a2.6,2.6,0,0,1-.465,1.484L71.7,78.913a2.6,2.6,0,0,1-2.136,1.117H48.818a2.6,2.6,0,0,1-2.6-2.6V59.738a2.6,2.6,0,0,1,.672-1.745l8.892-9.832a7.8,7.8,0,0,1,9.748-1.49V32.659a7.251,7.251,0,0,1,4.1-6.53V12.4a5.2,5.2,0,0,0-5.2-5.2H17.606a5.2,5.2,0,0,0-5.2,5.2V26.129a7.251,7.251,0,0,1,4.1,6.53V46.671a7.8,7.8,0,0,1,9.748,1.49l8.892,9.832a2.6,2.6,0,0,1,.672,1.745v17.69a2.6,2.6,0,0,1-2.6,2.6H12.469a2.6,2.6,0,0,1-2.136-1.117L2.465,67.591A2.6,2.6,0,0,1,2,66.106V32.659A7.253,7.253,0,0,1,7.2,25.7ZM9.25,30.611A2.048,2.048,0,0,1,11.3,32.659v19.3a2.6,2.6,0,0,0,.528,1.571l4.292,5.661a2.6,2.6,0,1,0,4.145-3.143l-2.753-3.631,1.336-1.057a2.6,2.6,0,0,1,3.543.295l8.221,9.089V74.827H13.829L7.2,65.291V32.659A2.048,2.048,0,0,1,9.25,30.611Zm61.481,2.048a2.048,2.048,0,1,1,4.1,0V65.291L68.2,74.827H51.419V60.74l8.221-9.089a2.6,2.6,0,0,1,3.543-.295l1.336,1.057-2.753,3.631a2.6,2.6,0,1,0,4.145,3.143L70.2,53.525a2.6,2.6,0,0,0,.528-1.571Z" transform="translate(0.601)" fill="#fcb313" fill-rule="evenodd"/>
    <path id="Path_5155" data-name="Path 5155" d="M41.207,28.6a2.6,2.6,0,0,1-2.6,2.6h-13a2.6,2.6,0,0,1,0-5.2h13A2.6,2.6,0,0,1,41.207,28.6Z" transform="translate(6.911 7.212)" fill="#fcb313"/>
    <path id="Path_5156" data-name="Path 5156" d="M21.266,11.6a2.6,2.6,0,1,0-3.33,4l5.405,4.5-5.405,4.5a2.6,2.6,0,0,0,3.33,4l5.405-4.5a5.2,5.2,0,0,0,0-7.993Z" transform="translate(5.108 2.704)" fill="#fcb313"/>
  </g>
</svg>
