<svg xmlns="http://www.w3.org/2000/svg" width="93.124" height="93.138" viewBox="0 0 93.124 93.138">
  <path id="Path_5153" data-name="Path 5153" d="M107.593,42.756a.991.991,0,0,0-1.4,0L99.1,49.841,75.032,25.77l7.085-7.087a.993.993,0,0,0-1.405-1.4l-7.787,7.8a.994.994,0,0,0,0,1.405l2.2,2.2L64.157,38.9a3.271,3.271,0,0,1-.717.544L51.815,45.954a8.912,8.912,0,0,0-4.385,9.637l.2.924L29.921,76.374l-3.449-3.449a1.023,1.023,0,0,0-1.405,0l-7.787,7.787a.993.993,0,0,0,1.4,1.405l7.087-7.085L49.841,99.105l-7.085,7.085a.993.993,0,0,0,1.405,1.4l7.8-7.8a.994.994,0,0,0,0-1.405L47.875,94.31l3.3-4.145a1.824,1.824,0,0,1,.424-.38l1.772-1.156a4.349,4.349,0,0,0,5.568,2.582l.061-.021a4.339,4.339,0,0,0,2.265-1.89,4.347,4.347,0,0,0,4.564,1.01l.063-.023a4.353,4.353,0,0,0,2.826-3.7,4.3,4.3,0,0,0,2.949,0l.061-.023A4.324,4.324,0,0,0,74.178,84.3a4.373,4.373,0,0,0,.38-1.382,4.318,4.318,0,0,0,2.985,0l.065-.023a4.349,4.349,0,0,0,2.6-5.571l-.3-.816,3.387-.8a4.415,4.415,0,0,0,3.253-5.258,4.347,4.347,0,0,0-1.521-2.472A4.564,4.564,0,0,0,87,63.119,4.486,4.486,0,0,0,85.18,60.4a4.337,4.337,0,0,0,1.426-4.237,4.265,4.265,0,0,0-1.86-2.708A4.212,4.212,0,0,0,85.939,49.6L91,44.541l7.4,7.4a.994.994,0,0,0,1.405,0l7.8-7.8a1,1,0,0,0-.009-1.39ZM58.306,89.324l.34.936-.394-.911a2.366,2.366,0,0,1-3.042-1.413l-1.439-3.955a2.395,2.395,0,0,1,4.5-1.631l1.439,3.961a2.362,2.362,0,0,1-1.407,3.014Zm6.885-.9.338.934-.4-.911A2.362,2.362,0,0,1,62.1,87.034l-.513-1.409h0l-1.434-3.963h0l-.38-1.061a2.4,2.4,0,1,1,4.5-1.637l.635,1.748L66.1,83.982h0l.512,1.409a2.365,2.365,0,0,1-1.42,3.033Zm7.186-4.953a2.345,2.345,0,0,1-1.331,1.221l.34.934-.4-.911a2.364,2.364,0,0,1-3.025-1.407l-1.19-3.274-.249-.686A2.345,2.345,0,0,1,66.6,77.54a2.4,2.4,0,0,1,1.4-1.244,2.362,2.362,0,0,1,3.025,1.413l.951,2.63h0l.481,1.322a2.345,2.345,0,0,1-.074,1.81Zm5.895-3.643a2.35,2.35,0,0,1-1.331,1.221l-.063.023a2.364,2.364,0,0,1-3.033-1.409l-.951-2.632a2.354,2.354,0,0,1,.08-1.806,2.388,2.388,0,0,1,1.4-1.244,2.349,2.349,0,0,1,.806-.135A2.373,2.373,0,0,1,77.394,75.4l.951,2.628a2.344,2.344,0,0,1-.08,1.8Zm4.913-13.172-3.957.915a.994.994,0,0,0,.222,1.962,1.013,1.013,0,0,0,.224-.025l.719-.167,1.42-.281A2.424,2.424,0,0,1,82.843,73.8l-3.613.854a4.394,4.394,0,0,0-8.062-.262c-.059.129-.112.26-.16.392a4.419,4.419,0,0,0-3.755-.323,4.32,4.32,0,0,0-2.345,2.052,4.408,4.408,0,0,0-4.408-.791,4.356,4.356,0,0,0-2.818,3.4,4.4,4.4,0,0,0-5.777,5.543l.749,2.056-2.16,1.409a3.8,3.8,0,0,0-.894.814l-3.153,3.968L31.328,77.782,48.164,58.913,49.6,65.378a4.431,4.431,0,0,0,4.326,3.478,4.71,4.71,0,0,0,1.485-.245,4.451,4.451,0,0,0,2.953-5.088l-1.1-5.49a10.116,10.116,0,0,0,5.514-5.387l18.46-4.47a2.284,2.284,0,1,1,1.107,4.432L75.937,54.26a.994.994,0,0,0,.247,1.957.916.916,0,0,0,.245-.032l3.364-.861a.936.936,0,0,0,.28-.03l1.74-.462a2.3,2.3,0,0,1,1.8.266,2.36,2.36,0,0,1-.627,4.276l-1.491.38h-.01l-1.3.329h0l-1.552.394a.994.994,0,0,0,.489,1.926l2.852-.726a2.514,2.514,0,0,1,1.947.295,2.578,2.578,0,0,1-.742,4.685Zm1.879-18.973a4.216,4.216,0,0,0-4.282-1.436L63.4,50.457c.01-.059.021-.116.029-.175a.993.993,0,1,0-1.964-.295,8.072,8.072,0,0,1-5.6,6.442,1,1,0,0,0-.717,1.156l1.266,6.33a2.493,2.493,0,0,1-4.877,1.036l-2.166-9.768a6.935,6.935,0,0,1,3.423-7.5L64.42,41.174a5.184,5.184,0,0,0,1.128-.848L76.542,30.082,89.605,43.146Z" transform="translate(-15.867 -15.867)" fill="#de6834" stroke="#de6834" stroke-width="2"/>
</svg>
