<svg xmlns="http://www.w3.org/2000/svg" width="97.881" height="79.643" viewBox="0 0 97.881 79.643">
  <path id="noun-people-5698321" d="M132.954,86.411a9.629,9.629,0,1,1-6.809,16.439l-.086-.093a9.627,9.627,0,0,1,6.894-16.346Zm28.664-22.844a8.042,8.042,0,0,1,5.7,2.362l.088.095a8.062,8.062,0,1,1-11.493-.1l.095-.088a8.041,8.041,0,0,1,5.609-2.275Zm3.516,4.548a4.98,4.98,0,0,0-6.967-.07l-.067.07a4.97,4.97,0,1,0,7.107.068l-.073-.068Zm-60.841-4.548a8.065,8.065,0,1,1-5.7,13.768l-.088-.095a8.051,8.051,0,0,1,.088-11.305l.01-.01a8.04,8.04,0,0,1,5.693-2.359Zm3.517,4.544a4.977,4.977,0,0,0-7.1,6.971l.07.067a4.975,4.975,0,0,0,7.033-7.039Zm15.306-1.934a8.919,8.919,0,1,1-6.309,2.612A8.9,8.9,0,0,1,123.114,66.178Zm4.123,4.8a5.832,5.832,0,1,0,1.708,4.123A5.817,5.817,0,0,0,127.238,70.976Zm15.556-4.8a8.922,8.922,0,0,1,6.309,15.23l-.093.086a8.917,8.917,0,1,1-6.215-15.316Zm4.123,4.8a5.828,5.828,0,1,0-.067,8.318l.067-.072a5.832,5.832,0,0,0,0-8.246ZM95.1,80.07a8.065,8.065,0,1,1-5.7,13.768l-.088-.095A8.051,8.051,0,0,1,89.4,82.438l.01-.01A8.04,8.04,0,0,1,95.1,80.07Zm3.517,4.544a4.977,4.977,0,0,0-7.1,6.971l.07.067a4.975,4.975,0,0,0,7.033-7.039ZM170.81,80.07a8.042,8.042,0,0,1,5.7,2.362l.088.095a8.062,8.062,0,1,1-11.493-.1l.095-.088a8.041,8.041,0,0,1,5.609-2.275Zm3.516,4.548a4.98,4.98,0,0,0-6.967-.07l-.067.07a4.97,4.97,0,1,0,7.107.068l-.073-.068Zm-14.235,17.7a8.028,8.028,0,0,1,1.98-3.255l.095-.088a7.968,7.968,0,0,1,5.556-2.261H173.9a8.019,8.019,0,0,1,8,8v16.97a1.546,1.546,0,0,1-1.545,1.545H165.136v10.534a1.546,1.546,0,0,1-1.545,1.545h-17.26v6.361a1.546,1.546,0,0,1-1.545,1.545H121.127a1.546,1.546,0,0,1-1.545-1.545V135.3H102.321a1.546,1.546,0,0,1-1.545-1.545V123.224H85.562a1.546,1.546,0,0,1-1.545-1.545v-16.97a8.019,8.019,0,0,1,8-8h6.175a8.032,8.032,0,0,1,7.631,5.6,8.759,8.759,0,0,1,3.8-.865h6.985a8.813,8.813,0,0,1,6.018,2.378,8.908,8.908,0,0,1,2.328,3.545,9.46,9.46,0,0,1,4.176-.967h7.654a9.487,9.487,0,0,1,4.178.966,8.91,8.91,0,0,1,2.326-3.544,8.819,8.819,0,0,1,6.019-2.378h6.984a8.768,8.768,0,0,1,3.8.867Zm5.044,17.82h13.67V104.708A4.927,4.927,0,0,0,173.9,99.8h-6.175a4.889,4.889,0,0,0-3.4,1.371l-.068.073a4.9,4.9,0,0,0-1.43,3.109,8.811,8.811,0,0,1,2.309,5.942v9.838ZM103.082,104.35a4.93,4.93,0,0,0-4.9-4.55H92.012a4.927,4.927,0,0,0-4.909,4.908v15.425h13.668V110.3a8.811,8.811,0,0,1,2.31-5.944Zm10.03-21.308a8.919,8.919,0,1,1-6.309,2.612A8.9,8.9,0,0,1,113.112,83.043Zm4.123,4.8a5.832,5.832,0,1,0,1.708,4.123A5.817,5.817,0,0,0,117.235,87.841Zm35.559-4.8a8.922,8.922,0,0,1,6.309,15.23l-.093.086A8.917,8.917,0,1,1,152.8,83.043Zm4.123,4.8a5.828,5.828,0,1,0-.067,8.318l.067-.072a5.832,5.832,0,0,0,0-8.246Zm-10.589,44.371h15.714V110.295a5.767,5.767,0,0,0-5.756-5.757H149.3a5.777,5.777,0,0,0-5.676,4.776,9.519,9.519,0,0,1,2.7,6.635Zm-24.051-22.9a5.777,5.777,0,0,0-5.675-4.776h-6.985a5.766,5.766,0,0,0-5.756,5.757v21.917h15.716V115.949a9.522,9.522,0,0,1,2.7-6.635Zm15.3-17.9a6.54,6.54,0,0,0-9.318,9.179l.073.068a6.538,6.538,0,0,0,9.245-9.248Zm-.795,18.076h-7.654a6.478,6.478,0,0,0-6.457,6.456v24.169h20.568V115.948a6.446,6.446,0,0,0-1.824-4.49l-.073-.068a6.442,6.442,0,0,0-4.56-1.9Z" transform="translate(-84.016 -63.567)" fill="#fcb313"/>
</svg>
